/* XPM */
static char *_09cecabb9694160f26d92f4c43923d6[] = {
/* columns rows colors chars-per-pixel */
"16 16 81 1 ",
"  c black",
". c #010101",
"X c #000302",
"o c #020202",
"O c #050001",
"+ c #040404",
"@ c #0B0B0B",
"# c #140507",
"$ c #1B0104",
"% c #121415",
"& c #2C0106",
"* c #360D13",
"= c #3B0F15",
"- c #3F171D",
"; c #222424",
": c #34393B",
"> c #4D030D",
", c #6E3D44",
"< c #723E46",
"1 c #505050",
"2 c #585959",
"3 c gray35",
"4 c #5A5A5A",
"5 c #5B5B5B",
"6 c #5E595A",
"7 c #595C5C",
"8 c #5A5C5C",
"9 c #5B5C5C",
"0 c #585E5D",
"q c gray36",
"w c #76464D",
"e c #7A4950",
"r c #6E5054",
"t c #69585A",
"y c #595F62",
"u c #666767",
"i c #686868",
"p c #636D71",
"a c #B3071F",
"s c #B80119",
"d c #CF001C",
"f c #D0021D",
"g c #D2021E",
"h c #D5011D",
"j c #DD001E",
"k c #DC011F",
"l c #E0001E",
"z c #DB0522",
"x c #DE1934",
"c c #E20F2D",
"v c #FF0023",
"b c #FD0125",
"n c #FE0024",
"m c #FF0024",
"M c #FE0124",
"N c #F80426",
"B c #F50628",
"V c #FA0628",
"C c #F60828",
"Z c #F60829",
"A c #923E49",
"S c #C97788",
"D c #818181",
"F c #8F9A9F",
"G c #959899",
"H c #95A7AD",
"J c #A5A4A4",
"K c #EF8593",
"L c #BFC2C4",
"P c #BCC0C8",
"I c #BACAD1",
"U c #CACBCB",
"Y c #DCD2D4",
"T c #DFE2E3",
"R c #D6E8F1",
"E c #E2F5FF",
"W c #E6FAFF",
"Q c #F3F6F7",
"! c #FBFEFF",
"~ c #FEFFFF",
"^ c None",
/* pixels */
"^^^^^^^^^^^^^^^^",
"^^^^V^^^^^^z^^^^",
"^^^^nnC<=gzj^^^^",
"^^^^nnB,*djj^^^^",
"^^0ANvCw-glh>X^^",
"^^9rcxKYPSas$ ^^",
"^^96etU~WH#&O ^^",
"^^q592J!Ep   +^^",
"^^5552DQR:    ^^",
"^^q555iTI%   X^^",
"^^^5556LF   +^^^",
"^^^^555Gy   ^^^^",
"^^^^^qqu;  ^^^^^",
"^^^^^qq1@  ^^^^^",
"^^^^^^q1@ ^^^^^^",
"^^^^^^^^^^^^^^^^"
};
