/* XPM */
static char *a2455950919345eeb4d13e6eb8bca971[] = {
/* columns rows colors chars-per-pixel */
"64 64 131 2 ",
"   c #000000",
".  c #0A0000",
"X  c #0A0A0A",
"o  c #130303",
"O  c #0F1112",
"+  c #131414",
"@  c #17191A",
"#  c #181A1B",
"$  c #230307",
"%  c #2A0208",
"&  c #3B030A",
"*  c #1F2225",
"=  c #25282A",
"-  c #282B2D",
";  c #303336",
":  c #333739",
">  c #4C040C",
",  c #63030F",
"<  c #690310",
"1  c #790213",
"2  c #3D4244",
"3  c #444749",
"4  c #4E4E4E",
"5  c #464D51",
"6  c #505050",
"7  c #5F5758",
"8  c #535A5D",
"9  c #5B5B5B",
"0  c #734E55",
"q  c #794B51",
"w  c #655557",
"e  c #685456",
"r  c #675459",
"t  c #535D60",
"y  c #5C6366",
"u  c #5F666B",
"i  c #636363",
"p  c #626B6E",
"a  c gray42",
"s  c #6B7679",
"d  c #747474",
"f  c #7C7C7C",
"g  c #820315",
"h  c #9E0418",
"j  c #AC031A",
"k  c #871020",
"l  c #B4273A",
"z  c #BA273A",
"x  c #B5293D",
"c  c #C0031D",
"v  c #CB011C",
"b  c #D1031D",
"n  c #DC001E",
"m  c #E1021F",
"M  c #C80922",
"N  c #DB0422",
"B  c #DA0926",
"V  c #DA0C29",
"C  c #D8152F",
"Z  c #CC1D34",
"A  c #D61631",
"S  c #DC1733",
"D  c #EF0927",
"F  c #E60D2C",
"G  c #EC0F2E",
"H  c #F20727",
"J  c #FE0024",
"K  c #F70729",
"L  c #F90729",
"P  c #F60C2D",
"I  c #F9092B",
"U  c #F20E30",
"Y  c #F71333",
"T  c #FB1837",
"R  c #8F3E49",
"E  c #913D48",
"W  c #A33342",
"Q  c #BE3347",
"!  c #DB2D45",
"~  c #F62F4A",
"^  c #83454D",
"/  c #9E4C5B",
"(  c #CE6978",
")  c #6F7D81",
"_  c #B77383",
"`  c #DC788B",
"'  c #F77E8E",
"]  c #7C8487",
"[  c #79848A",
"{  c #848484",
"}  c #898989",
"|  c #829095",
" . c #869399",
".. c #939393",
"X. c #9A9B9B",
"o. c #8F9EA4",
"O. c #94A1A7",
"+. c #9CACB3",
"@. c #A2A2A2",
"#. c gray67",
"$. c #ACB0AF",
"%. c #B3B5B5",
"&. c #BEBEBE",
"*. c #DE8893",
"=. c #ABB9C0",
"-. c #B2C3CB",
";. c #BBCED4",
":. c #C6C6C6",
">. c gray80",
",. c #DCC5D3",
"<. c #C2D6DF",
"1. c #D4D8D8",
"2. c gray86",
"3. c #F7CED4",
"4. c #CDDEE6",
"5. c #CADEE8",
"6. c #DDDDE8",
"7. c #D0E3EE",
"8. c #D4EBF3",
"9. c #DCEDF6",
"0. c #D8EDF8",
"q. c #DCF3FD",
"w. c #E4E4E4",
"e. c #ECECEC",
"r. c #FBE7EA",
"t. c #ECEFF0",
"y. c #E0F4FD",
"u. c #E3F8FF",
"i. c #F4F4F4",
"p. c #FDFEFE",
"a. c None",
/* pixels */
"a.a.a.a.a.a.a.a.a.a.a.a.a.a.a.a.a.a.a.a.a.a.a.a.a.a.a.a.a.a.a.a.a.a.a.a.a.a.a.a.a.a.a.a.a.a.a.a.a.a.a.a.a.a.a.a.a.a.a.a.a.a.a.a.",
"a.a.a.a.a.a.a.a.a.a.a.a.a.a.a.a.a.a.a.a.a.a.a.a.a.a.a.a.a.a.a.a.a.a.a.a.a.a.a.a.a.a.a.a.a.a.a.a.a.a.a.a.a.a.a.a.a.a.a.a.a.a.a.a.",
"a.a.a.a.a.a.a.a.a.a.a.a.a.a.a.a.a.a.a.a.a.a.a.a.a.a.a.a.a.a.a.a.a.a.a.a.a.a.a.a.a.a.a.a.a.a.a.a.a.a.a.a.a.a.a.a.a.a.a.a.a.a.a.a.",
"a.a.a.a.a.a.a.a.a.a.a.a.a.a.a.a.a.a.a.a.a.a.a.a.a.a.a.a.a.a.a.a.a.a.a.a.a.a.a.a.a.a.a.a.a.a.a.a.a.a.a.a.a.a.a.a.a.a.a.a.a.a.a.a.",
"a.a.a.a.a.a.a.a.a.a.a.a.a.a.a.a.a.a.a.a.a.a.a.a.a.a.a.a.a.a.a.a.a.a.a.a.a.a.a.a.a.a.a.a.a.a.a.a.a.a.a.a.a.a.a.a.a.a.a.a.a.a.a.a.",
"a.a.a.a.a.a.a.a.a.a.a.a.a.a.a.a.a.P U a.a.a.a.a.a.a.a.a.a.a.a.a.a.a.a.a.a.a.a.a.a.a.a.a.a.V V a.a.a.a.a.a.a.a.a.a.a.a.a.a.a.a.a.",
"a.a.a.a.a.a.a.a.a.a.a.a.a.a.a.a.P J J L L a.a.a.a.a.a.a.a.a.a.a.a.a.a.a.a.a.a.a.a.a.a.B n n n V a.a.a.a.a.a.a.a.a.a.a.a.a.a.a.a.",
"a.a.a.a.a.a.a.a.a.a.a.a.a.a.a.a.I J J J J J K U a.a.a.a.a.a.a.a.a.a.a.a.a.a.a.a.V B N n n n n B a.a.a.a.a.a.a.a.a.a.a.a.a.a.a.a.",
"a.a.a.a.a.a.a.a.a.a.a.a.a.a.a.a.H J J J J J J J K P a.a.a.a.a.a.a.a.a.a.a.a.B N n n n n n n n N a.a.a.a.a.a.a.a.a.a.a.a.a.a.a.a.",
"a.a.a.a.a.a.a.a.a.a.a.a.a.a.a.a.J J J J J J J J J J K Y Q a.a.a.a.a.a.k N N N n n n n n n n n n a.a.a.a.a.a.a.a.a.a.a.a.a.a.a.a.",
"a.a.a.a.a.a.a.a.a.a.a.a.a.a.a.a.J J J J J J J J J J J J x 9 9 6 X     1 n N n n n n n n n n n n a.a.a.a.a.a.a.a.a.a.a.a.a.a.a.a.",
"a.a.a.a.a.a.a.a.a.a.a.a.a.a.a.P J J J J J J J J J J J J Q 9 9 6 X     1 n n n n n n n n n n n n V a.a.a.a.a.a.a.a.a.a.a.a.a.a.a.",
"a.a.a.a.a.a.a.a.a.a.a.a.a.a.a.I J J J J J J J J J J J J x t 9 6 X     1 n n n n n n n n n n n n V a.a.a.a.a.a.a.a.a.a.a.a.a.a.a.",
"a.a.a.a.a.a.a.a.a.a.a.a.a.a.a.L J J J J J J J J J J J J x 9 9 6 X     1 m n n n n n n n n n n n N a.a.a.a.a.a.a.a.a.a.a.a.a.a.a.",
"a.a.a.a.a.a.a.a.a.a.a.a.a.a.a.I J J J J J J J J J J J J x 9 9 6 X     1 n n n n n n n n n n n n V a.a.a.a.a.a.a.a.a.a.a.a.a.a.a.",
"a.a.a.a.a.a.a.a.a.a.a.a.a.a.a.I J J J J J J J J J J J J x 9 9 6 O     1 m n n n n n n n n n n n V a.a.a.a.a.a.a.a.a.a.a.a.a.a.a.",
"a.a.a.a.a.a.a.a.a.a.a.a.a.a.a.L J J J J J J J J J J J J l 9 9 6 X     1 n n n n n n n n n n n n N a.a.a.a.a.a.a.a.a.a.a.a.a.a.a.",
"a.a.a.a.a.a.a.a.a.a.a.a.a.a.a.G J J J J J J J J J J J J x 9 9 6 X     1 n n n n n n n n n n n n M a.a.a.a.a.a.a.a.a.a.a.a.a.a.a.",
"a.a.a.a.a.9 9 9 9 9 9 9 9 y 9 z J J J J J J J J J J J J x 8 9 6 X     1 n n n n n n n n n n n n g         X         X a.a.a.a.a.",
"a.a.a.a.a.a.9 9 9 9 9 9 9 9 9 W J J J J J J J J J J J J l 9 9 4 X     1 m n n n n n n n n n n n <                   a.a.a.a.a.a.",
"a.a.a.a.a.a.9 9 9 9 9 9 9 9 9 R J J J J J J J J J J J T ( X.X...y 8 t / S n n n n n n n n n n n >                   a.a.a.a.a.a.",
"a.a.a.a.a.a.a.9 9 9 9 9 9 9 9 q D J J J J J J J L ~ ' 3.i.p.p.p.y.q.q.9.,.` ! B n n n n n n n v %                 X a.a.a.a.a.a.",
"a.a.a.a.a.a.a.i 9 9 9 9 9 9 9 r C J J J J J H Z *.r.p.p.p.p.p.p.y.q.q.q.q.q.6._ h b n n n n m j o               X a.a.a.a.a.a.a.",
"a.a.a.a.a.a.a.9 9 9 9 9 9 9 9 9 z J J J F l ^ 7 $.p.p.p.p.p.p.p.q.q.q.q.q.q.q.) . & g c n m m g                 X a.a.a.a.a.a.a.",
"a.a.a.a.a.a.a.a.9 9 9 9 9 9 9 9 E H C W 0 9 8 9 } p.p.p.p.p.p.p.y.q.q.q.q.q.8.2       $ , j b >                 a.a.a.a.a.a.a.a.",
"a.a.a.a.a.a.a.a.i 9 9 9 9 9 9 9 e ^ w 9 9 9 9 9 a w.p.p.p.p.p.p.y.q.q.q.q.q.;.#           o & o               X a.a.a.a.a.a.a.a.",
"a.a.a.a.a.a.a.a.a.9 9 9 9 9 9 9 9 9 9 9 9 9 9 9 9 >.p.p.p.p.p.i.y.q.9.q.q.u.O.                                a.a.a.a.a.a.a.a.a.",
"a.a.a.a.a.a.a.a.a.9 9 9 9 9 9 9 9 9 9 9 9 9 9 9 9 @.p.p.p.p.p.p.y.q.q.q.q.y.p                               X a.a.a.a.a.a.a.a.a.",
"a.a.a.a.a.a.a.a.a.a.9 9 9 9 9 9 9 9 9 9 9 9 9 9 9 f i.p.p.p.p.p.q.q.q.q.q.7.:                               a.a.a.a.a.a.a.a.a.a.",
"a.a.a.a.a.a.a.a.a.a.9 9 9 9 9 9 9 9 9 9 9 9 9 9 9 a 2.p.p.p.p.p.y.q.q.q.q.-.+                             X a.a.a.a.a.a.a.a.a.a.",
"a.a.a.a.a.a.a.a.a.a.a.9 9 9 9 9 9 9 9 9 9 9 9 9 9 9 &.p.p.p.p.p.y.q.q.q.y. .                            X a.a.a.a.a.a.a.a.a.a.a.",
"a.a.a.a.a.a.a.a.a.a.a.9 9 9 9 9 9 9 9 9 9 9 9 9 9 7 X.p.p.p.p.p.q.q.q.q.q.t                               X a.a.a.a.a.a.a.a.a.a.",
"a.a.a.a.a.a.9 9 9 9 9 9 9 9 9 9 9 9 9 9 7 9 9 9 9 7 f t.p.p.p.i.y.q.q.q.5.-                                         a.a.a.a.a.a.",
"a.a.a.a.a.a.i 9 9 9 9 9 9 9 9 9 9 9 9 9 9 9 9 9 9 9 i 1.p.p.p.p.y.9.q.y.=.X                                       X a.a.a.a.a.a.",
"a.a.a.a.a.a.a.9 9 9 9 9 9 9 9 9 9 9 9 9 9 9 9 9 9 9 9 %.p.p.p.p.y.q.q.q.[                                         a.a.a.a.a.a.a.",
"a.a.a.a.a.a.a.a.9 9 9 9 9 9 9 9 9 9 9 9 9 9 9 9 9 9 7 ..p.p.p.p.y.q.q.0.5                                       a.a.a.a.a.a.a.a.",
"a.a.a.a.a.a.a.a.a.9 9 9 9 9 9 9 9 9 9 9 9 9 9 9 9 9 7 a t.p.p.p.q.q.q.<.*                                     a.a.a.a.a.a.a.a.a.",
"a.a.a.a.a.a.a.a.a.9 9 9 9 9 9 9 9 9 9 9 9 9 9 9 9 9 9 y >.p.p.p.y.q.u.+.X                                   X a.a.a.a.a.a.a.a.a.",
"a.a.a.a.a.a.a.a.a.a.9 9 9 9 9 9 9 9 9 8 9 9 9 9 9 9 9 9 #.p.p.p.y.q.q.s                                   X a.a.a.a.a.a.a.a.a.a.",
"a.a.a.a.a.a.a.a.a.a.a.9 9 9 9 9 9 9 9 7 9 9 9 9 9 9 9 9 } i.p.p.y.q.7.2                                   a.a.a.a.a.a.a.a.a.a.a.",
"a.a.a.a.a.a.a.a.a.a.a.a.9 9 9 9 9 9 9 9 9 9 9 9 9 9 9 7 a w.p.i.y.q.;.#                                 a.a.a.a.a.a.a.a.a.a.a.a.",
"a.a.a.a.a.a.a.a.a.a.a.a.9 9 9 9 9 9 9 9 9 9 9 9 9 9 9 9 9 :.p.p.y.q.O.                                X a.a.a.a.a.a.a.a.a.a.a.a.",
"a.a.a.a.a.a.a.a.a.a.a.a.a.i 9 9 9 7 9 9 9 7 9 9 9 9 9 9 9 @.p.p.y.q.u                               X a.a.a.a.a.a.a.a.a.a.a.a.a.",
"a.a.a.a.a.a.a.a.a.a.a.a.a.a.9 9 9 8 9 9 9 9 9 9 9 9 9 9 9 f i.p.y.7.;                               a.a.a.a.a.a.a.a.a.a.a.a.a.a.",
"a.a.a.a.a.a.a.a.a.a.a.a.a.a.a.9 9 9 9 9 9 9 9 9 9 9 9 9 8 i 2.p.u.-.O                             a.a.a.a.a.a.a.a.a.a.a.a.a.a.a.",
"a.a.a.a.a.a.a.a.a.a.a.a.a.a.a.9 9 9 9 9 9 9 9 9 9 9 9 9 9 9 &.p.u.|                             X a.a.a.a.a.a.a.a.a.a.a.a.a.a.a.",
"a.a.a.a.a.a.a.a.a.a.a.a.a.a.a.a.9 9 9 9 9 9 9 9 9 9 9 9 9 9 X.p.q.8                             a.a.a.a.a.a.a.a.a.a.a.a.a.a.a.a.",
"a.a.a.a.a.a.a.a.a.a.a.a.a.a.a.a.a.9 9 9 9 9 9 9 9 9 9 9 9 9 d t.4.=                           a.a.a.a.a.a.a.a.a.a.a.a.a.a.a.a.a.",
"a.a.a.a.a.a.a.a.a.a.a.a.a.a.a.a.a.a.9 9 9 9 9 9 9 9 9 9 9 9 i 1.=.X                         X a.a.a.a.a.a.a.a.a.a.a.a.a.a.a.a.a.",
"a.a.a.a.a.a.a.a.a.a.a.a.a.a.a.a.a.a.9 9 9 9 9 9 9 9 9 9 9 9 7 %.]                         X a.a.a.a.a.a.a.a.a.a.a.a.a.a.a.a.a.a.",
"a.a.a.a.a.a.a.a.a.a.a.a.a.a.a.a.a.a.a.9 9 9 9 9 9 9 9 9 9 9 9 { 3                         a.a.a.a.a.a.a.a.a.a.a.a.a.a.a.a.a.a.a.",
"a.a.a.a.a.a.a.a.a.a.a.a.a.a.a.a.a.a.a.a.9 9 9 9 9 9 9 9 9 9 9 9 +                       a.a.a.a.a.a.a.a.a.a.a.a.a.a.a.a.a.a.a.a.",
"a.a.a.a.a.a.a.a.a.a.a.a.a.a.a.a.a.a.a.a.a.9 9 9 9 9 9 9 9 9 9 6 X                     X a.a.a.a.a.a.a.a.a.a.a.a.a.a.a.a.a.a.a.a.",
"a.a.a.a.a.a.a.a.a.a.a.a.a.a.a.a.a.a.a.a.a.9 9 9 9 9 9 9 9 9 9 6 X                   X a.a.a.a.a.a.a.a.a.a.a.a.a.a.a.a.a.a.a.a.a.",
"a.a.a.a.a.a.a.a.a.a.a.a.a.a.a.a.a.a.a.a.a.a.i 9 9 9 9 9 9 9 9 6 X                   a.a.a.a.a.a.a.a.a.a.a.a.a.a.a.a.a.a.a.a.a.a.",
"a.a.a.a.a.a.a.a.a.a.a.a.a.a.a.a.a.a.a.a.a.a.a.9 9 9 9 9 9 9 9 6 X                 a.a.a.a.a.a.a.a.a.a.a.a.a.a.a.a.a.a.a.a.a.a.a.",
"a.a.a.a.a.a.a.a.a.a.a.a.a.a.a.a.a.a.a.a.a.a.a.9 9 9 9 9 9 9 9 6 X               X a.a.a.a.a.a.a.a.a.a.a.a.a.a.a.a.a.a.a.a.a.a.a.",
"a.a.a.a.a.a.a.a.a.a.a.a.a.a.a.a.a.a.a.a.a.a.a.a.9 9 9 9 9 9 9 6 X               a.a.a.a.a.a.a.a.a.a.a.a.a.a.a.a.a.a.a.a.a.a.a.a.",
"a.a.a.a.a.a.a.a.a.a.a.a.a.a.a.a.a.a.a.a.a.a.a.a.a.9 9 9 9 9 i 6 X             a.a.a.a.a.a.a.a.a.a.a.a.a.a.a.a.a.a.a.a.a.a.a.a.a.",
"a.a.a.a.a.a.a.a.a.a.a.a.a.a.a.a.a.a.a.a.a.a.a.a.a.a.a.a.a.a.a.a.a.a.a.a.a.a.a.a.a.a.a.a.a.a.a.a.a.a.a.a.a.a.a.a.a.a.a.a.a.a.a.a.",
"a.a.a.a.a.a.a.a.a.a.a.a.a.a.a.a.a.a.a.a.a.a.a.a.a.a.a.a.a.a.a.a.a.a.a.a.a.a.a.a.a.a.a.a.a.a.a.a.a.a.a.a.a.a.a.a.a.a.a.a.a.a.a.a.",
"a.a.a.a.a.a.a.a.a.a.a.a.a.a.a.a.a.a.a.a.a.a.a.a.a.a.a.a.a.a.a.a.a.a.a.a.a.a.a.a.a.a.a.a.a.a.a.a.a.a.a.a.a.a.a.a.a.a.a.a.a.a.a.a.",
"a.a.a.a.a.a.a.a.a.a.a.a.a.a.a.a.a.a.a.a.a.a.a.a.a.a.a.a.a.a.a.a.a.a.a.a.a.a.a.a.a.a.a.a.a.a.a.a.a.a.a.a.a.a.a.a.a.a.a.a.a.a.a.a.",
"a.a.a.a.a.a.a.a.a.a.a.a.a.a.a.a.a.a.a.a.a.a.a.a.a.a.a.a.a.a.a.a.a.a.a.a.a.a.a.a.a.a.a.a.a.a.a.a.a.a.a.a.a.a.a.a.a.a.a.a.a.a.a.a."
};
