/* XPM */
static char *eb956922da0b43d4ec73086f37158619[] = {
/* columns rows colors chars-per-pixel */
"32 32 162 2 ",
"   c black",
".  c #010000",
"X  c #010101",
"o  c #000201",
"O  c #020202",
"+  c gray1",
"@  c #040404",
"#  c gray2",
"$  c #060607",
"%  c #0F0103",
"&  c #070B0B",
"*  c #080B0B",
"=  c #0B0B0B",
"-  c #080C0C",
";  c #090D0D",
":  c #150204",
">  c #0F1011",
",  c #161819",
"<  c #1D1E1E",
"1  c #290206",
"2  c #1E2122",
"3  c #2F3335",
"4  c #44000A",
"5  c #45020B",
"6  c #48030C",
"7  c #51020C",
"8  c #55030D",
"9  c #710815",
"0  c #3A3F42",
"q  c #464D50",
"w  c #4D5251",
"e  c #4E5252",
"r  c #4F5353",
"t  c #505050",
"y  c #52575A",
"u  c #585858",
"i  c gray35",
"p  c #585B5A",
"a  c #5A5A5A",
"s  c #5A5B5B",
"d  c #5B5B5B",
"f  c #5C5B5B",
"g  c #595C5C",
"h  c #595D5D",
"j  c gray36",
"k  c #5D5D5D",
"l  c #5F5F5F",
"z  c #784B51",
"x  c #695357",
"c  c #655558",
"v  c #5C666A",
"b  c #616261",
"n  c gray40",
"m  c gray42",
"M  c #6B757A",
"N  c #717171",
"B  c #7E7E7D",
"V  c #B00219",
"C  c #B30219",
"Z  c #CB011C",
"A  c #D8001B",
"S  c #D8001D",
"D  c #D8001E",
"F  c #D8011E",
"G  c #DB011E",
"H  c #DC001D",
"J  c #DC001E",
"K  c #DD001E",
"L  c #DC011E",
"P  c #DC011F",
"I  c #DE001E",
"U  c #DE011F",
"Y  c #DC021F",
"T  c #DC0220",
"R  c #DC0321",
"E  c #DB0521",
"W  c #DB0522",
"Q  c #D80725",
"!  c #DD122E",
"~  c #DB142F",
"^  c #DC1934",
"/  c #FB0222",
"(  c #FE0023",
")  c #FF0023",
"_  c #FB0225",
"`  c #FA0325",
"'  c #FB0325",
"]  c #FC0124",
"[  c #FD0124",
"{  c #FC0125",
"}  c #FE0024",
"|  c #FF0024",
" . c #FE0124",
".. c #FE0125",
"X. c #FC0224",
"o. c #FC0225",
"O. c #FB0426",
"+. c #FB0427",
"@. c #FA0527",
"#. c #F00828",
"$. c #F60F2F",
"%. c #FA1B39",
"&. c #8E3F49",
"*. c #973946",
"=. c #953A48",
"-. c #AC3444",
";. c #8E404B",
":. c #8F404B",
">. c #8F414B",
",. c #DA5C72",
"<. c #F96176",
"1. c #78858A",
"2. c #868686",
"3. c gray56",
"4. c #8F9293",
"5. c #889398",
"6. c #8E9EA4",
"7. c #A799A3",
"8. c #B29CA7",
"9. c #96A4A9",
"0. c #9CABB2",
"q. c #A0A0A0",
"w. c #AAAAAA",
"e. c #B3B6B5",
"r. c #BABEBE",
"t. c #D7B7BC",
"y. c #DDB5BA",
"u. c #B5C5CB",
"i. c #B9CCD5",
"p. c #C0C3C4",
"a. c #C6C5C5",
"s. c gray81",
"d. c #C2D5DE",
"f. c #DBDFE0",
"g. c #D3E5EE",
"h. c #D3E9F3",
"j. c #D8EDF8",
"k. c #DCF2FD",
"l. c #DEF2FD",
"z. c #DDF4FF",
"x. c #DEF4FF",
"c. c #DEF6FF",
"v. c #DFF6FF",
"b. c gray90",
"n. c gray92",
"m. c #E0F3FD",
"M. c #E1F4FD",
"N. c #E1F4FE",
"B. c #E2F6FF",
"V. c #E4F7FF",
"C. c #E4F8FF",
"Z. c #F1F4F5",
"A. c #F9F9F8",
"S. c #FAFDFE",
"D. c #FAFEFE",
"F. c #FBFEFF",
"G. c gray99",
"H. c #FFFCFD",
"J. c #FCFFFF",
"K. c #FDFFFF",
"L. c gray100",
"P. c None",
/* pixels */
"P.P.P.P.P.P.P.P.P.P.P.P.P.P.P.P.P.P.P.P.P.P.P.P.P.P.P.P.P.P.P.P.",
"P.P.P.P.P.P.P.P.P.P.P.P.P.P.P.P.P.P.P.P.P.P.P.P.P.P.P.P.P.P.P.P.",
"P.P.P.P.P.P.P.P.P.P.P.P.P.P.P.P.P.P.P.P.P.P.P.P.P.P.P.P.P.P.P.P.",
"P.P.P.P.P.P.P.P.@...+.P.P.P.P.P.P.P.P.P.P.E Y E P.P.P.P.P.P.P.P.",
"P.P.P.P.P.P.P.P.[ [ [ [ +.$.P.P.P.P.Q R P P H P P.P.P.P.P.P.P.P.",
"P.P.P.P.P.P.P.P.[ [ [ [ [ ` ;.w ; 5 D P P P P P P.P.P.P.P.P.P.P.",
"P.P.P.P.P.P.P.P.[ [ [ [ [ [ ;.w - 4 D P P H P P P.P.P.P.P.P.P.P.",
"P.P.P.P.P.P.P.P.[ [ [ [ [ ` ;.w - 4 D P H P H P P.P.P.P.P.P.P.P.",
"P.P.P.P.P.P.P.P.[ [ [ [ ) ` &.w & 4 H Y H P H P P.P.P.P.P.P.P.P.",
"P.P.P.j d d g ;.` [ [ [ ) ) ;.r ; 4 A H P H P H 6 o O o O P.P.P.",
"P.P.P.j d d g z #.[ ) [ %.<.t.p.9.7.,.^ Y H Y Z 1 o o o O P.P.P.",
"P.P.P.P.d d d c ! [ ! -.y.H.K.S.C.c.l.8.9 C Y C % o o o P.P.P.P.",
"P.P.P.P.j d d f *.=.x u e.K.K.K.l.k.c.1.o : 7 8 o o o O P.P.P.P.",
"P.P.P.P.P.d d d d g d u 3.K.K.S.M.l.j.q o o o o o o o P.P.P.P.P.",
"P.P.P.P.P.j j d d d d d N n.K.S.m.c.d.2 o o o o o o O P.P.P.P.P.",
"P.P.P.P.P.j d d d d d d j s.K.K.m.c.0.# o o o o o o # P.P.P.P.P.",
"P.P.P.j d d d d d d d d d w.K.S.m.c.M o o o o o o o O o O P.P.P.",
"P.P.P.P.d d d d d d d d u 2.A.S.N.h.0 o o o o o o o o O P.P.P.P.",
"P.P.P.P.P.d d d d d d d d m b.S.B.i., o o o o o o o O # P.P.P.P.",
"P.P.P.P.P.j d d d d d d f j a.K.B.6.o o o o o o o o O P.P.P.P.P.",
"P.P.P.P.P.P.j d d d d d d u q.S.B.v o o o o o o O O P.P.P.P.P.P.",
"P.P.P.P.P.P.P.j d d d d d u B Z.g.3 o o o o o o O P.P.P.P.P.P.P.",
"P.P.P.P.P.P.P.j d d d d d d n f.u.> o o o o o O O P.P.P.P.P.P.P.",
"P.P.P.P.P.P.P.P.j d d d d d d r.5.o o o o o o O P.P.P.P.P.P.P.P.",
"P.P.P.P.P.P.P.P.P.j f d d d d 4.y o o o o o O P.P.P.P.P.P.P.P.P.",
"P.P.P.P.P.P.P.P.P.P.f d d d d b < o o o o O P.P.P.P.P.P.P.P.P.P.",
"P.P.P.P.P.P.P.P.P.P.j f d d j t = o o o o # P.P.P.P.P.P.P.P.P.P.",
"P.P.P.P.P.P.P.P.P.P.P.j d d j t = o o O O P.P.P.P.P.P.P.P.P.P.P.",
"P.P.P.P.P.P.P.P.P.P.P.P.j f j t = o o O P.P.P.P.P.P.P.P.P.P.P.P.",
"P.P.P.P.P.P.P.P.P.P.P.P.P.f j t = o o P.P.P.P.P.P.P.P.P.P.P.P.P.",
"P.P.P.P.P.P.P.P.P.P.P.P.P.P.P.P.P.P.P.P.P.P.P.P.P.P.P.P.P.P.P.P.",
"P.P.P.P.P.P.P.P.P.P.P.P.P.P.P.P.P.P.P.P.P.P.P.P.P.P.P.P.P.P.P.P."
};
